<svg width="15" height="15" viewBox="0 0 15 15" fill="none" xmlns="http://www.w3.org/2000/svg">
<path d="M12.4336 13.7572H8.37572V9.56798H13.384V12.8067C13.384 13.3296 12.9563 13.7572 12.4336 13.7572ZM8.37572 4.66916C8.20197 4.62214 7.91513 4.54655 7.79227 4.43219C7.78354 4.42396 7.77739 4.41394 7.76864 4.40521C7.76042 4.41396 7.75376 4.42396 7.745 4.43219C7.62216 4.54657 7.51112 4.62211 7.33736 4.66916V8.52967H2.06592V5.20323C2.06592 4.68045 2.49358 4.25279 3.01635 4.25279H5.22314C4.97434 4.11325 4.74198 3.95159 4.54767 3.77039C3.6651 2.94795 3.50573 1.76265 4.19196 1.12244C4.47931 0.854883 4.86948 0.725098 5.29099 0.725098C5.87595 0.725098 6.52106 0.975161 7.0341 1.45321C7.33224 1.7313 7.58667 2.08904 7.76864 2.46479C7.95112 2.08906 8.20505 1.73128 8.5037 1.45321C9.01673 0.975161 9.66187 0.725098 10.2468 0.725098C10.6678 0.725098 11.0585 0.854898 11.3458 1.12244C12.0326 1.76265 11.8727 2.94795 10.9901 3.77039C10.7958 3.95158 10.5634 4.11325 10.3147 4.25279H12.4335C12.9563 4.25279 13.384 4.68047 13.384 5.20323V8.52967H8.37572V4.66916ZM6.37304 2.16253C6.05844 1.87008 5.65389 1.69504 5.29099 1.69504C5.18252 1.69504 4.98154 1.7128 4.85355 1.83255C4.82423 1.85928 4.73533 1.94153 4.73533 2.14559C4.73533 2.37483 4.85973 2.73517 5.20876 3.06079C5.63538 3.45814 6.33964 3.75807 6.84597 3.75807C7.02434 3.75807 7.08755 3.719 7.08806 3.71848C7.17081 3.55296 6.96777 2.71667 6.37304 2.16253ZM8.46362 3.73235C8.46362 3.73235 8.46414 3.73184 8.46465 3.73184C8.47647 3.73184 8.54535 3.75806 8.69185 3.75806C9.19817 3.75806 9.90241 3.45814 10.3291 3.06079C10.6781 2.73516 10.802 2.3751 10.802 2.14611C10.802 1.94206 10.7136 1.85955 10.6843 1.83256C10.5557 1.7128 10.3553 1.69506 10.2468 1.69506C9.88339 1.69506 9.47936 1.87008 9.16476 2.16255C8.57413 2.71307 8.36955 3.54116 8.46362 3.73235ZM7.33736 13.7572H3.01635C2.49358 13.7572 2.06592 13.3296 2.06592 12.8068V9.56799H7.33736V13.7572Z" fill="#96EA63"/>
</svg>