<svg width="40" height="40" viewBox="0 0 40 40" fill="none" xmlns="http://www.w3.org/2000/svg">
<g clip-path="url(#clip0_480_103)">
<path d="M9.00011 -0.333251H10.0373C10.2707 -0.333185 10.4968 -0.251448 10.6763 -0.102205C10.8558 0.0470382 10.9774 0.254381 11.0201 0.483891L13.6473 14.4839C13.6741 14.628 13.6689 14.7762 13.632 14.918C13.5952 15.0599 13.5277 15.1919 13.4342 15.3047C13.3407 15.4176 13.2235 15.5085 13.091 15.5711C12.9585 15.6336 12.8138 15.6663 12.6673 15.6667H10.7501C10.5049 15.6686 10.2675 15.5803 10.0831 15.4186C9.89875 15.2568 9.78023 15.033 9.75011 14.7896L8.00011 0.789606C7.98295 0.658129 7.99211 0.524552 8.02705 0.396647C8.06199 0.268742 8.12202 0.149063 8.20364 0.0445731C8.28527 -0.0599167 8.38686 -0.147131 8.5025 -0.211995C8.61814 -0.276858 8.74553 -0.318077 8.87725 -0.333251H9.00011ZM30.6673 -0.333251H29.6273C29.3936 -0.333519 29.1672 -0.251934 28.9874 -0.102662C28.8075 0.0466099 28.6857 0.25414 28.643 0.483891L26.0201 14.4839C25.9933 14.628 25.9985 14.7762 26.0353 14.918C26.0722 15.0599 26.1397 15.1919 26.2332 15.3047C26.3267 15.4176 26.4439 15.5085 26.5764 15.5711C26.7089 15.6336 26.8536 15.6663 27.0001 15.6667H28.9144C29.1596 15.6686 29.397 15.5803 29.5814 15.4186C29.7658 15.2568 29.8843 15.033 29.9144 14.7896L31.6673 0.789606C31.6844 0.657806 31.6751 0.523912 31.6399 0.395751C31.6047 0.26759 31.5443 0.147734 31.4622 0.0431877C31.3801 -0.0613582 31.278 -0.148496 31.1619 -0.213131C31.0458 -0.277766 30.9179 -0.318602 30.7858 -0.333251H30.6658H30.6673Z" fill="#96EA63"/>
<path d="M7.94754 33.0002H8.2804L8.77325 33.6831L8.66754 34.0002H7.61325L7.94754 33.0002ZM5.05325 33.0002H4.7204L4.22754 33.6831L4.33325 34.0002H5.38754L5.05325 33.0002Z" fill="#175AA7"/>
<path d="M4 33.0002H9L8 36.0002H5L4 33.0002ZM31 33.0002H36L35 36.0002H32L31 33.0002Z" fill="#96EA63"/>
<path d="M2 24H38C38.5304 24 39.0391 24.2107 39.4142 24.5858C39.7893 24.9609 40 25.4696 40 26V32C40 32.5304 39.7893 33.0391 39.4142 33.4142C39.0391 33.7893 38.5304 34 38 34H2C1.46957 34 0.960859 33.7893 0.585786 33.4142C0.210714 33.0391 0 32.5304 0 32L0 26C0 25.4696 0.210714 24.9609 0.585786 24.5858C0.960859 24.2107 1.46957 24 2 24Z" fill="#96EA63"/>
<path d="M5.74734 23.667H39.7131L32.8773 13.9041C32.5991 13.521 32.2341 13.2092 31.8123 12.9942C31.3904 12.7792 30.9237 12.667 30.4502 12.667H9.50734C9.03385 12.667 8.56709 12.7792 8.14524 12.9942C7.72339 13.2092 7.35843 13.521 7.0802 13.9041L5.74734 15.7441L0.200195 23.667H5.74734Z" fill="#96EA63"/>
<path d="M26.84 30.75H29.34V28.25H26.84V30.75ZM31.84 30.75H34.34V28.25H31.84V30.75ZM8 29H9V30H8V29ZM11 29H12V30H11V29ZM5 29H6V30H5V29ZM14 29H15V30H14V29Z" fill="black"/>
</g>
<defs>
<clipPath id="clip0_480_103">
<rect width="40" height="40" fill="white"/>
</clipPath>
</defs>
</svg>