<svg width="16" height="12" viewBox="0 0 16 12" fill="none" xmlns="http://www.w3.org/2000/svg">
<path d="M3.74081 6.65747C3.74262 6.6936 3.73706 6.72972 3.72447 6.76363C3.71188 6.79754 3.69252 6.82854 3.66757 6.85474C3.64262 6.88093 3.6126 6.90178 3.57935 6.91601C3.54609 6.93024 3.51028 6.93755 3.47411 6.93751H0.532372C0.411979 6.93769 0.295065 6.89714 0.200642 6.82245C0.106219 6.74775 0.0398404 6.64332 0.0123007 6.52612C-0.00484768 6.4459 -0.00405715 6.36288 0.0146157 6.283C0.0332886 6.20312 0.0693823 6.12836 0.120315 6.06405C0.590919 5.43995 1.21532 4.94856 1.93256 4.63786C1.61767 4.35075 1.37616 3.99238 1.22825 3.59274C1.08034 3.1931 1.03035 2.76384 1.08246 2.34091C1.13456 1.91798 1.28725 1.51369 1.52773 1.16191C1.76822 0.810121 2.08949 0.521079 2.46465 0.318991C2.83982 0.116903 3.25794 0.00765197 3.68401 0.000387624C4.11007 -0.00687672 4.53168 0.0880573 4.91351 0.277239C5.29534 0.46642 5.62629 0.744341 5.87862 1.08772C6.13096 1.43111 6.29734 1.82996 6.36383 2.25087C6.37242 2.30747 6.36228 2.36533 6.33496 2.41564C6.30764 2.46595 6.26463 2.50595 6.21248 2.52957C5.47264 2.8716 4.84607 3.41812 4.4067 4.10464C3.96734 4.79115 3.73351 5.58902 3.73281 6.4041C3.73281 6.48944 3.73281 6.57346 3.74081 6.65747ZM15.8758 6.06339C15.4063 5.44001 14.7833 4.94889 14.0675 4.63786C14.3824 4.35075 14.624 3.99238 14.7719 3.59274C14.9198 3.1931 14.9698 2.76384 14.9177 2.34091C14.8656 1.91798 14.7129 1.51369 14.4724 1.16191C14.2319 0.810121 13.9106 0.521079 13.5355 0.318991C13.1603 0.116903 12.7422 0.00765197 12.3161 0.000387624C11.89 -0.00687672 11.4684 0.0880573 11.0866 0.277239C10.7048 0.46642 10.3738 0.744341 10.1215 1.08772C9.86915 1.43111 9.70277 1.82996 9.63628 2.25087C9.62769 2.30747 9.63783 2.36533 9.66515 2.41564C9.69247 2.46595 9.73548 2.50595 9.78763 2.52957C10.5275 2.8716 11.154 3.41812 11.5934 4.10464C12.0328 4.79115 12.2666 5.58902 12.2673 6.4041C12.2673 6.48944 12.2673 6.57346 12.2593 6.65747C12.2575 6.6936 12.2631 6.72972 12.2756 6.76363C12.2882 6.79754 12.3076 6.82854 12.3325 6.85474C12.3575 6.88093 12.3875 6.90178 12.4208 6.91601C12.454 6.93024 12.4898 6.93755 12.526 6.93751H15.4677C15.5881 6.93769 15.705 6.89714 15.7995 6.82245C15.8939 6.74775 15.9603 6.64332 15.9878 6.52612C16.0051 6.44575 16.0043 6.36256 15.9855 6.28254C15.9667 6.20252 15.9304 6.12767 15.8791 6.06339H15.8758ZM9.94165 8.94245C10.4728 8.5357 10.8631 7.97276 11.0577 7.33273C11.2523 6.69271 11.2415 6.00778 11.0268 5.37422C10.8121 4.74066 10.4042 4.19031 9.86051 3.80052C9.31684 3.41074 8.66469 3.20112 7.99572 3.20112C7.32676 3.20112 6.67461 3.41074 6.13093 3.80052C5.58726 4.19031 5.17939 4.74066 4.96465 5.37422C4.74992 6.00778 4.73911 6.69271 4.93375 7.33273C5.12838 7.97276 5.51868 8.5357 6.04979 8.94245C5.10735 9.35079 4.3204 10.0501 3.80415 10.938C3.75733 11.0191 3.73268 11.1111 3.73269 11.2048C3.73269 11.2984 3.75735 11.3904 3.80418 11.4715C3.85101 11.5526 3.91836 11.6199 3.99947 11.6667C4.08057 11.7135 4.17257 11.7382 4.26621 11.7382H11.7339C11.8275 11.7382 11.9195 11.7135 12.0006 11.6667C12.0817 11.6199 12.1491 11.5526 12.1959 11.4715C12.2428 11.3904 12.2674 11.2984 12.2674 11.2048C12.2674 11.1111 12.2428 11.0191 12.196 10.938C11.6786 10.0495 10.8902 9.35015 9.94632 8.94245H9.94165Z" fill="#96EA63"/>
</svg>