<svg width="44" height="34" viewBox="0 0 44 34" fill="none" xmlns="http://www.w3.org/2000/svg">
<path d="M42.9621 11.5067L24.8848 0.850533C22.9605 -0.283511 20.7538 -0.283511 18.8296 0.850533L0.752234 11.5067C0.273448 11.7883 0 12.2715 0 12.8336C0 13.3958 0.273448 13.8784 0.752234 14.1605L18.8296 24.8168C20.7538 25.9508 22.9605 25.9508 24.8848 24.8168L42.9621 14.1605C43.4409 13.8784 43.7143 13.3958 43.7143 12.8336C43.7143 12.2715 43.4409 11.7883 42.9621 11.5067ZM0 21.1664C0 21.7285 0.273448 22.2117 0.752234 22.4933L18.8296 33.1495C20.7538 34.2835 22.9605 34.2835 24.8848 33.1495L42.9621 22.4933C43.4409 22.2117 43.7143 21.7285 43.7143 21.1664V14.9889C43.6487 15.0361 43.5806 15.0802 43.5105 15.1217L25.4327 25.778C23.1699 27.112 20.5444 27.112 18.2817 25.778L0.203825 15.1217C0.133697 15.0802 0.0655871 15.0361 0 14.9889V21.1664Z" fill="#96EA63"/>
</svg>