<svg width="48" height="48" viewBox="0 0 48 48" fill="none" xmlns="http://www.w3.org/2000/svg">
<path d="M41.083 30.6026V11.6681C41.083 9.15275 39.476 9.50211 39.476 9.50211H10.7599C8.10488 9.50211 8.45419 11.1091 8.45419 11.1091V30.7423L1.46729 34.6549V36.8209H47.1616V34.5152L41.083 30.6026ZM39.476 32.2794H41.9215V32.7685H39.476V32.2794ZM42.5503 33.048V33.5371H40.1048V33.048H42.5503ZM36.8909 31.5109H39.3363V32H36.8909V31.5109ZM36.7512 33.048H39.1966V33.5371H36.7511L36.7512 33.048ZM36.2621 32.7685V32.2794H38.7075V32.7685H36.2621ZM33.8865 31.5109H36.332V32H33.8865V31.5109ZM33.3974 33.048H35.8429V33.5371H33.3974V33.048ZM33.1179 32.7685V32.2794H35.6333V32.7685H33.1179ZM30.7424 31.5109H33.1878V32H30.7424V31.5109ZM29.9738 32.2794H32.4193V32.7685H29.9738L29.9738 32.2794ZM32.559 33.048V33.5371H30.1136V33.048H32.559ZM27.3887 31.5109H29.8341V32H27.3887V31.5109ZM26.8298 32.2794H29.2752V32.7685H26.8297L26.8298 32.2794ZM29.2752 33.048V33.5371H26.8297V33.048H29.2752ZM24.3843 31.5109H26.8298V32H24.3843V31.5109ZM23.6857 32.7685V32.2794H26.131V32.7685H23.6857ZM25.9215 33.048V33.5371H23.476V33.048H25.9215ZM21.3101 31.5109H23.7556V32H21.3101V31.5109ZM20.5415 32.7685V32.2794H22.987V32.7685H20.5415ZM22.5677 33.048V33.5371H20.1223V33.048H22.5677ZM18.3057 31.5109H20.7511V32H18.3057V31.5109ZM17.3974 32.7685V32.2794H19.8428V32.7685H17.3974ZM19.2839 33.048V33.5371H16.8384V33.048H19.2839ZM15.2315 31.5109H17.6769V32H15.2315V31.5109ZM11.1092 32.7685V32.2794H13.5546V32.7685H11.1092ZM12.6463 33.048V33.5371H10.201V33.048H12.6464H12.6463ZM13.4848 33.048H15.9302V33.5371H13.4847V33.048H13.4848ZM14.2533 32.7685V32.2794H16.6988V32.7685H14.2533H14.2533ZM12.2271 31.5109H14.6726V32H12.2271V31.5109ZM9.22275 31.5109H11.6682V32H9.22271V31.5109H9.22275ZM7.89525 32.2794H10.3407V32.7685H7.89521V32.2794H7.89525ZM6.84722 33.048H9.29265V33.5371H6.84718L6.84722 33.048ZM27.738 36.262H21.7293V35.3537L27.7381 35.4235V36.262H27.738ZM1.81669 34.7248L2.72499 34.1659H46.3931L47.0918 34.7248H1.81669Z" fill="#96EA63"/>
<path d="M28.2465 19.6179V18.5423C28.2126 18.0208 27.7726 17.6293 27.2311 17.6293H26.2157V17.5641C26.1819 16.6845 25.4372 16.0001 24.5235 16.0001C23.5758 16.0001 22.8311 16.7172 22.8311 17.6298H21.7481C21.2065 17.6628 20.8004 18.0861 20.8004 18.6076V20.2372H21.545C22.0865 20.2702 22.4926 20.6935 22.4926 21.215C22.4926 21.7691 22.0526 22.1928 21.4772 22.1928H20.8003V23.8871C20.8342 24.4086 21.2742 24.8001 21.8157 24.8001H27.2988C27.8403 24.7671 28.2464 24.3438 28.2464 23.8223V22.812C29.0249 22.6491 29.6003 21.9972 29.6003 21.2149C29.6003 20.4326 29.025 19.7808 28.2465 19.6179ZM27.9081 22.1931H27.5696V23.8549C27.5357 24.0178 27.4004 24.1483 27.2311 24.1483H21.7819C21.6128 24.1153 21.4773 23.9854 21.4773 23.8223V22.8445H21.545C22.4589 22.8115 23.1696 22.0949 23.1696 21.2149C23.1696 20.3019 22.425 19.5852 21.4772 19.5852V18.5749C21.5111 18.412 21.6464 18.2815 21.8157 18.2815H23.5081V17.5645C23.5419 17.043 23.9819 16.6515 24.5235 16.6515C25.0989 16.6515 25.5389 17.0753 25.5389 17.6293V18.2812H27.265C27.4342 18.3142 27.5696 18.4441 27.5696 18.6071V20.2372H27.9757C28.5172 20.2702 28.9234 20.6935 28.9234 21.215C28.9235 21.769 28.4835 22.1931 27.9081 22.1931Z" fill="black"/>
</svg>